<mxfile host="app.diagrams.net" modified="2022-08-22T15:15:18.810Z" agent="5.0 (Macintosh; Intel Mac OS X 10_15_7) AppleWebKit/537.36 (KHTML, like Gecko) Chrome/104.0.0.0 Safari/537.36" etag="3mKUNVHgg1_91g5nN63f" version="20.0.1" type="github">
  <diagram id="bLjbHIvmTckDM2cmYiDY" name="Page-1">
    <mxGraphModel dx="564" dy="352" grid="1" gridSize="10" guides="1" tooltips="1" connect="1" arrows="1" fold="1" page="1" pageScale="1" pageWidth="850" pageHeight="1100" math="0" shadow="0">
      <root>
        <mxCell id="0" />
        <mxCell id="1" parent="0" />
        <mxCell id="9XuMZjb1l4Er9oWZeEob-1" value="&lt;b&gt;&lt;font color=&quot;#ff0d25&quot;&gt;cluster1&lt;/font&gt;&lt;/b&gt;" style="whiteSpace=wrap;html=1;aspect=fixed;" vertex="1" parent="1">
          <mxGeometry x="50" y="130" width="190" height="190" as="geometry" />
        </mxCell>
        <mxCell id="9XuMZjb1l4Er9oWZeEob-39" style="edgeStyle=orthogonalEdgeStyle;rounded=0;orthogonalLoop=1;jettySize=auto;html=1;entryX=0.25;entryY=1;entryDx=0;entryDy=0;fontColor=#FF0D25;" edge="1" parent="1" source="9XuMZjb1l4Er9oWZeEob-2" target="9XuMZjb1l4Er9oWZeEob-18">
          <mxGeometry relative="1" as="geometry" />
        </mxCell>
        <mxCell id="9XuMZjb1l4Er9oWZeEob-2" value="pod-sq2" style="whiteSpace=wrap;html=1;aspect=fixed;fillColor=#fff2cc;strokeColor=#d6b656;" vertex="1" parent="1">
          <mxGeometry x="121" y="250" width="50" height="50" as="geometry" />
        </mxCell>
        <mxCell id="9XuMZjb1l4Er9oWZeEob-38" style="edgeStyle=orthogonalEdgeStyle;rounded=0;orthogonalLoop=1;jettySize=auto;html=1;entryX=0.338;entryY=0.938;entryDx=0;entryDy=0;entryPerimeter=0;fontColor=#FF0D25;" edge="1" parent="1" source="9XuMZjb1l4Er9oWZeEob-3" target="9XuMZjb1l4Er9oWZeEob-16">
          <mxGeometry relative="1" as="geometry" />
        </mxCell>
        <mxCell id="9XuMZjb1l4Er9oWZeEob-3" value="pod-sq1" style="whiteSpace=wrap;html=1;aspect=fixed;fillColor=#fff2cc;strokeColor=#d6b656;" vertex="1" parent="1">
          <mxGeometry x="60" y="220" width="50" height="50" as="geometry" />
        </mxCell>
        <mxCell id="9XuMZjb1l4Er9oWZeEob-40" style="edgeStyle=orthogonalEdgeStyle;rounded=0;orthogonalLoop=1;jettySize=auto;html=1;entryX=0;entryY=0.75;entryDx=0;entryDy=0;fontColor=#FF0D25;" edge="1" parent="1" source="9XuMZjb1l4Er9oWZeEob-4" target="9XuMZjb1l4Er9oWZeEob-17">
          <mxGeometry relative="1" as="geometry">
            <Array as="points">
              <mxPoint x="180" y="220" />
              <mxPoint x="190" y="220" />
            </Array>
          </mxGeometry>
        </mxCell>
        <mxCell id="9XuMZjb1l4Er9oWZeEob-4" value="pod-sq3" style="whiteSpace=wrap;html=1;aspect=fixed;fillColor=#fff2cc;strokeColor=#d6b656;" vertex="1" parent="1">
          <mxGeometry x="180" y="230" width="50" height="50" as="geometry" />
        </mxCell>
        <mxCell id="9XuMZjb1l4Er9oWZeEob-5" value="&lt;b&gt;&lt;font color=&quot;#ff3333&quot;&gt;zadara&lt;/font&gt;&lt;/b&gt;" style="shape=cylinder3;whiteSpace=wrap;html=1;boundedLbl=1;backgroundOutline=1;size=15;" vertex="1" parent="1">
          <mxGeometry x="305" y="90" width="120" height="140" as="geometry" />
        </mxCell>
        <mxCell id="9XuMZjb1l4Er9oWZeEob-63" style="edgeStyle=orthogonalEdgeStyle;rounded=0;orthogonalLoop=1;jettySize=auto;html=1;fontColor=#FF0D25;" edge="1" parent="1" source="9XuMZjb1l4Er9oWZeEob-7">
          <mxGeometry relative="1" as="geometry">
            <mxPoint x="110" y="360" as="targetPoint" />
            <Array as="points">
              <mxPoint x="325" y="380" />
              <mxPoint x="110" y="380" />
            </Array>
          </mxGeometry>
        </mxCell>
        <mxCell id="9XuMZjb1l4Er9oWZeEob-7" value="v1" style="shape=cylinder3;whiteSpace=wrap;html=1;boundedLbl=1;backgroundOutline=1;size=15;fillColor=#fff2cc;strokeColor=#d6b656;" vertex="1" parent="1">
          <mxGeometry x="310" y="120" width="30" height="50" as="geometry" />
        </mxCell>
        <mxCell id="9XuMZjb1l4Er9oWZeEob-86" style="edgeStyle=orthogonalEdgeStyle;rounded=0;orthogonalLoop=1;jettySize=auto;html=1;fontColor=#FF0D25;" edge="1" parent="1" source="9XuMZjb1l4Er9oWZeEob-8">
          <mxGeometry relative="1" as="geometry">
            <mxPoint x="160" y="360" as="targetPoint" />
            <Array as="points">
              <mxPoint x="365" y="370" />
              <mxPoint x="160" y="370" />
            </Array>
          </mxGeometry>
        </mxCell>
        <mxCell id="9XuMZjb1l4Er9oWZeEob-8" value="v2" style="shape=cylinder3;whiteSpace=wrap;html=1;boundedLbl=1;backgroundOutline=1;size=15;fillColor=#fff2cc;strokeColor=#d6b656;" vertex="1" parent="1">
          <mxGeometry x="350" y="110" width="30" height="50" as="geometry" />
        </mxCell>
        <mxCell id="9XuMZjb1l4Er9oWZeEob-65" style="edgeStyle=orthogonalEdgeStyle;rounded=0;orthogonalLoop=1;jettySize=auto;html=1;entryX=1;entryY=0.5;entryDx=0;entryDy=0;fontColor=#FF0D25;" edge="1" parent="1" source="9XuMZjb1l4Er9oWZeEob-9" target="9XuMZjb1l4Er9oWZeEob-22">
          <mxGeometry relative="1" as="geometry">
            <Array as="points">
              <mxPoint x="410" y="330" />
            </Array>
          </mxGeometry>
        </mxCell>
        <mxCell id="9XuMZjb1l4Er9oWZeEob-9" value="v3" style="shape=cylinder3;whiteSpace=wrap;html=1;boundedLbl=1;backgroundOutline=1;size=15;fillColor=#fff2cc;strokeColor=#d6b656;" vertex="1" parent="1">
          <mxGeometry x="390" y="120" width="30" height="50" as="geometry" />
        </mxCell>
        <mxCell id="9XuMZjb1l4Er9oWZeEob-16" value="pvc1" style="shape=process;whiteSpace=wrap;html=1;backgroundOutline=1;fillColor=#fff2cc;strokeColor=#d6b656;" vertex="1" parent="1">
          <mxGeometry x="70" y="160" width="50" height="20" as="geometry" />
        </mxCell>
        <mxCell id="9XuMZjb1l4Er9oWZeEob-17" value="pvc3" style="shape=process;whiteSpace=wrap;html=1;backgroundOutline=1;fillColor=#fff2cc;strokeColor=#d6b656;" vertex="1" parent="1">
          <mxGeometry x="171" y="200" width="40" height="20" as="geometry" />
        </mxCell>
        <mxCell id="9XuMZjb1l4Er9oWZeEob-18" value="pvc2" style="shape=process;whiteSpace=wrap;html=1;backgroundOutline=1;fillColor=#fff2cc;strokeColor=#d6b656;" vertex="1" parent="1">
          <mxGeometry x="140" y="170" width="50" height="20" as="geometry" />
        </mxCell>
        <mxCell id="9XuMZjb1l4Er9oWZeEob-21" value="node1" style="rounded=1;whiteSpace=wrap;html=1;fillColor=#d5e8d4;strokeColor=#82b366;" vertex="1" parent="1">
          <mxGeometry x="85" y="320" width="55" height="35" as="geometry" />
        </mxCell>
        <mxCell id="9XuMZjb1l4Er9oWZeEob-22" value="node3" style="rounded=1;whiteSpace=wrap;html=1;fillColor=#d5e8d4;strokeColor=#82b366;" vertex="1" parent="1">
          <mxGeometry x="190" y="320" width="50" height="20" as="geometry" />
        </mxCell>
        <mxCell id="9XuMZjb1l4Er9oWZeEob-25" value="node..n" style="rounded=1;whiteSpace=wrap;html=1;fillColor=#d5e8d4;strokeColor=#82b366;" vertex="1" parent="1">
          <mxGeometry x="190" y="340" width="50" height="20" as="geometry" />
        </mxCell>
        <mxCell id="9XuMZjb1l4Er9oWZeEob-42" value="" style="endArrow=none;dashed=1;html=1;dashPattern=1 3;strokeWidth=2;rounded=0;fontColor=#FF0D25;entryX=0.145;entryY=0;entryDx=0;entryDy=4.35;entryPerimeter=0;startArrow=none;" edge="1" parent="1" source="9XuMZjb1l4Er9oWZeEob-45" target="9XuMZjb1l4Er9oWZeEob-7">
          <mxGeometry width="50" height="50" relative="1" as="geometry">
            <mxPoint x="100" y="160" as="sourcePoint" />
            <mxPoint x="150" y="110" as="targetPoint" />
          </mxGeometry>
        </mxCell>
        <mxCell id="9XuMZjb1l4Er9oWZeEob-43" value="" style="endArrow=none;dashed=1;html=1;dashPattern=1 3;strokeWidth=2;rounded=0;fontColor=#FF0D25;entryX=0.145;entryY=1;entryDx=0;entryDy=-4.35;entryPerimeter=0;startArrow=none;" edge="1" parent="1" source="9XuMZjb1l4Er9oWZeEob-51" target="9XuMZjb1l4Er9oWZeEob-9">
          <mxGeometry width="50" height="50" relative="1" as="geometry">
            <mxPoint x="240" y="195.65" as="sourcePoint" />
            <mxPoint x="454.3499999999999" y="160.00000000000003" as="targetPoint" />
          </mxGeometry>
        </mxCell>
        <mxCell id="9XuMZjb1l4Er9oWZeEob-44" value="" style="endArrow=none;dashed=1;html=1;dashPattern=1 3;strokeWidth=2;rounded=0;fontColor=#FF0D25;entryX=0.5;entryY=1;entryDx=0;entryDy=0;entryPerimeter=0;startArrow=none;" edge="1" parent="1" source="9XuMZjb1l4Er9oWZeEob-49" target="9XuMZjb1l4Er9oWZeEob-8">
          <mxGeometry width="50" height="50" relative="1" as="geometry">
            <mxPoint x="195.65" y="170" as="sourcePoint" />
            <mxPoint x="409.9999999999999" y="134.35000000000002" as="targetPoint" />
          </mxGeometry>
        </mxCell>
        <mxCell id="9XuMZjb1l4Er9oWZeEob-45" value="pv1" style="shape=cylinder3;whiteSpace=wrap;html=1;boundedLbl=1;backgroundOutline=1;size=15;fillColor=#fff2cc;strokeColor=#d6b656;" vertex="1" parent="1">
          <mxGeometry x="131" y="150" width="20" height="10" as="geometry" />
        </mxCell>
        <mxCell id="9XuMZjb1l4Er9oWZeEob-46" value="" style="endArrow=none;dashed=1;html=1;dashPattern=1 3;strokeWidth=2;rounded=0;fontColor=#FF0D25;entryX=0.145;entryY=0;entryDx=0;entryDy=4.35;entryPerimeter=0;" edge="1" parent="1" target="9XuMZjb1l4Er9oWZeEob-45">
          <mxGeometry width="50" height="50" relative="1" as="geometry">
            <mxPoint x="100" y="160" as="sourcePoint" />
            <mxPoint x="314.3499999999999" y="124.35000000000002" as="targetPoint" />
          </mxGeometry>
        </mxCell>
        <mxCell id="9XuMZjb1l4Er9oWZeEob-49" value="pv2" style="shape=cylinder3;whiteSpace=wrap;html=1;boundedLbl=1;backgroundOutline=1;size=15;fillColor=#fff2cc;strokeColor=#d6b656;" vertex="1" parent="1">
          <mxGeometry x="195" y="165" width="20" height="10" as="geometry" />
        </mxCell>
        <mxCell id="9XuMZjb1l4Er9oWZeEob-51" value="pv3" style="shape=cylinder3;whiteSpace=wrap;html=1;boundedLbl=1;backgroundOutline=1;size=15;fillColor=#fff2cc;strokeColor=#d6b656;" vertex="1" parent="1">
          <mxGeometry x="211" y="200" width="20" height="10" as="geometry" />
        </mxCell>
        <mxCell id="9XuMZjb1l4Er9oWZeEob-52" value="" style="endArrow=none;dashed=1;html=1;dashPattern=1 3;strokeWidth=2;rounded=0;fontColor=#FF0D25;entryX=0.145;entryY=1;entryDx=0;entryDy=-4.35;entryPerimeter=0;" edge="1" parent="1" target="9XuMZjb1l4Er9oWZeEob-51">
          <mxGeometry width="50" height="50" relative="1" as="geometry">
            <mxPoint x="240" y="195.64999999999998" as="sourcePoint" />
            <mxPoint x="394.3499999999999" y="165.64999999999998" as="targetPoint" />
          </mxGeometry>
        </mxCell>
        <mxCell id="9XuMZjb1l4Er9oWZeEob-24" value="node2" style="rounded=1;whiteSpace=wrap;html=1;fillColor=#d5e8d4;strokeColor=#82b366;" vertex="1" parent="1">
          <mxGeometry x="140" y="320" width="50" height="35" as="geometry" />
        </mxCell>
        <mxCell id="9XuMZjb1l4Er9oWZeEob-81" value="cluster2" style="whiteSpace=wrap;html=1;aspect=fixed;fontColor=#FF0D25;" vertex="1" parent="1">
          <mxGeometry x="280" y="480" width="110" height="110" as="geometry" />
        </mxCell>
        <mxCell id="9XuMZjb1l4Er9oWZeEob-82" value="node1" style="rounded=1;whiteSpace=wrap;html=1;fillColor=#d5e8d4;strokeColor=#82b366;" vertex="1" parent="1">
          <mxGeometry x="257.5" y="590" width="55" height="35" as="geometry" />
        </mxCell>
        <mxCell id="9XuMZjb1l4Er9oWZeEob-83" value="node3" style="rounded=1;whiteSpace=wrap;html=1;fillColor=#d5e8d4;strokeColor=#82b366;" vertex="1" parent="1">
          <mxGeometry x="362.5" y="590" width="50" height="20" as="geometry" />
        </mxCell>
        <mxCell id="9XuMZjb1l4Er9oWZeEob-84" value="node..n" style="rounded=1;whiteSpace=wrap;html=1;fillColor=#d5e8d4;strokeColor=#82b366;" vertex="1" parent="1">
          <mxGeometry x="362.5" y="610" width="50" height="20" as="geometry" />
        </mxCell>
        <mxCell id="9XuMZjb1l4Er9oWZeEob-85" value="node2" style="rounded=1;whiteSpace=wrap;html=1;fillColor=#d5e8d4;strokeColor=#82b366;" vertex="1" parent="1">
          <mxGeometry x="312.5" y="590" width="50" height="35" as="geometry" />
        </mxCell>
      </root>
    </mxGraphModel>
  </diagram>
</mxfile>
